<?xml version="1.0" encoding="UTF-8" standalone="no"?>
<!-- Created with Inkscape (http://www.inkscape.org/) -->

<svg
   xmlns:dc="http://purl.org/dc/elements/1.1/"
   xmlns:cc="http://creativecommons.org/ns#"
   xmlns:rdf="http://www.w3.org/1999/02/22-rdf-syntax-ns#"
   xmlns:svg="http://www.w3.org/2000/svg"
   xmlns="http://www.w3.org/2000/svg"
   xmlns:sodipodi="http://sodipodi.sourceforge.net/DTD/sodipodi-0.dtd"
   xmlns:inkscape="http://www.inkscape.org/namespaces/inkscape"
   width="1000"
   height="161.505"
   viewBox="0 0 264.58333 42.731534"
   version="1.1"
   id="svg976"
   sodipodi:docname="Continental (Orange).svg"
   inkscape:version="0.92.2 (5c3e80d, 2017-08-06)">
  <defs
     id="defs970">
    <clipPath
       id="clipPath1537"
       clipPathUnits="userSpaceOnUse">
      <path
         inkscape:connector-curvature="0"
         id="path1535"
         d="M 0,841.89 H 595.275 V 0 H 0 Z" />
    </clipPath>
    <clipPath
       id="clipPath1543"
       clipPathUnits="userSpaceOnUse">
      <path
         inkscape:connector-curvature="0"
         id="path1541"
         d="M 0.029999,841.95 H 595.29 V 0.03 H 0.029999 Z" />
    </clipPath>
    <clipPath
       id="clipPath1565"
       clipPathUnits="userSpaceOnUse">
      <path
         inkscape:connector-curvature="0"
         id="path1563"
         d="M 558.06,85.04 H 363.037 V 53.542 H 558.06 Z" />
    </clipPath>
    <clipPath
       id="clipPath1713"
       clipPathUnits="userSpaceOnUse">
      <path
         inkscape:connector-curvature="0"
         id="path1711"
         d="M 0,841.89 H 595.275 V 0 H 0 Z" />
    </clipPath>
    <clipPath
       id="clipPath1719"
       clipPathUnits="userSpaceOnUse">
      <path
         inkscape:connector-curvature="0"
         id="path1717"
         d="M 0.029999,841.95 H 595.29 V 0.03 H 0.029999 Z" />
    </clipPath>
    <clipPath
       id="clipPath1745"
       clipPathUnits="userSpaceOnUse">
      <path
         inkscape:connector-curvature="0"
         id="path1743"
         d="M 558.06,85.04 H 363.037 V 53.542 H 558.06 Z" />
    </clipPath>
    <clipPath
       id="clipPath1893"
       clipPathUnits="userSpaceOnUse">
      <path
         inkscape:connector-curvature="0"
         id="path1891"
         d="M 0,841.89 H 595.275 V 0 H 0 Z" />
    </clipPath>
    <clipPath
       id="clipPath1899"
       clipPathUnits="userSpaceOnUse">
      <path
         inkscape:connector-curvature="0"
         id="path1897"
         d="M 0.029999,841.95 H 595.29 V 0.03 H 0.029999 Z" />
    </clipPath>
    <clipPath
       id="clipPath1949"
       clipPathUnits="userSpaceOnUse">
      <path
         style="clip-rule:evenodd"
         inkscape:connector-curvature="0"
         id="path1947"
         d="m 155.887,338.28 c 0,-32.859 -26.668,-59.527 -59.527,-59.527 -32.859,0 -59.527,26.668 -59.527,59.527 0,32.859 26.668,59.527 59.527,59.527 32.859,0 59.527,-26.668 59.527,-59.527" />
    </clipPath>
    <clipPath
       id="clipPath1955"
       clipPathUnits="userSpaceOnUse">
      <path
         inkscape:connector-curvature="0"
         id="path1953"
         d="M 0,841.89 H 595.275 V 0 H 0 Z" />
    </clipPath>
    <clipPath
       id="clipPath1961"
       clipPathUnits="userSpaceOnUse">
      <path
         inkscape:connector-curvature="0"
         id="path1959"
         d="M 0.029999,841.95 H 595.29 V 0.03 H 0.029999 Z" />
    </clipPath>
    <clipPath
       id="clipPath1973"
       clipPathUnits="userSpaceOnUse">
      <path
         inkscape:connector-curvature="0"
         id="path1971"
         d="M 0,841.89 H 595.275 V 0 H 0 Z" />
    </clipPath>
    <clipPath
       id="clipPath1979"
       clipPathUnits="userSpaceOnUse">
      <path
         inkscape:connector-curvature="0"
         id="path1977"
         d="M 0.029999,841.95 H 595.29 V 0.03 H 0.029999 Z" />
    </clipPath>
    <clipPath
       id="clipPath1995"
       clipPathUnits="userSpaceOnUse">
      <path
         style="clip-rule:evenodd"
         inkscape:connector-curvature="0"
         id="path1993"
         d="m 272.113,653.4 c 0,-43.03 -34.923,-77.953 -77.953,-77.953 -43.03,0 -77.953,34.923 -77.953,77.953 0,43.03 34.923,77.953 77.953,77.953 43.03,0 77.953,-34.923 77.953,-77.953" />
    </clipPath>
    <clipPath
       id="clipPath2001"
       clipPathUnits="userSpaceOnUse">
      <path
         inkscape:connector-curvature="0"
         id="path1999"
         d="M 0,841.89 H 595.275 V 0 H 0 Z" />
    </clipPath>
    <clipPath
       id="clipPath2007"
       clipPathUnits="userSpaceOnUse">
      <path
         inkscape:connector-curvature="0"
         id="path2005"
         d="M 0.029999,841.95 H 595.29 V 0.03 H 0.029999 Z" />
    </clipPath>
    <clipPath
       id="clipPath2019"
       clipPathUnits="userSpaceOnUse">
      <path
         inkscape:connector-curvature="0"
         id="path2017"
         d="M 0,841.89 H 595.275 V 0 H 0 Z" />
    </clipPath>
    <clipPath
       id="clipPath2025"
       clipPathUnits="userSpaceOnUse">
      <path
         inkscape:connector-curvature="0"
         id="path2023"
         d="M 0.029999,841.95 H 595.29 V 0.03 H 0.029999 Z" />
    </clipPath>
    <clipPath
       id="clipPath2045"
       clipPathUnits="userSpaceOnUse">
      <path
         style="clip-rule:evenodd"
         inkscape:connector-curvature="0"
         id="path2043"
         d="m 496.958,624.78 c 0,-32.859 -26.669,-59.527 -59.528,-59.527 -32.859,0 -59.528,26.668 -59.528,59.527 0,32.859 26.669,59.527 59.528,59.527 32.859,0 59.528,-26.668 59.528,-59.527" />
    </clipPath>
    <clipPath
       id="clipPath2051"
       clipPathUnits="userSpaceOnUse">
      <path
         inkscape:connector-curvature="0"
         id="path2049"
         d="M 0,841.89 H 595.275 V 0 H 0 Z" />
    </clipPath>
    <clipPath
       id="clipPath2057"
       clipPathUnits="userSpaceOnUse">
      <path
         inkscape:connector-curvature="0"
         id="path2055"
         d="M 0.029999,841.95 H 595.29 V 0.03 H 0.029999 Z" />
    </clipPath>
    <clipPath
       id="clipPath2069"
       clipPathUnits="userSpaceOnUse">
      <path
         inkscape:connector-curvature="0"
         id="path2067"
         d="M 0,841.89 H 595.275 V 0 H 0 Z" />
    </clipPath>
    <clipPath
       id="clipPath2075"
       clipPathUnits="userSpaceOnUse">
      <path
         inkscape:connector-curvature="0"
         id="path2073"
         d="M 0.029999,841.95 H 595.29 V 0.03 H 0.029999 Z" />
    </clipPath>
    <clipPath
       id="clipPath2093"
       clipPathUnits="userSpaceOnUse">
      <path
         style="clip-rule:evenodd"
         inkscape:connector-curvature="0"
         id="path2091"
         d="m 511.928,421.02 c 0,-32.859 -26.669,-59.527 -59.528,-59.527 -32.859,0 -59.528,26.668 -59.528,59.527 0,32.859 26.669,59.527 59.528,59.527 32.859,0 59.528,-26.668 59.528,-59.527" />
    </clipPath>
    <clipPath
       id="clipPath2099"
       clipPathUnits="userSpaceOnUse">
      <path
         inkscape:connector-curvature="0"
         id="path2097"
         d="M 0,841.89 H 595.275 V 0 H 0 Z" />
    </clipPath>
    <clipPath
       id="clipPath2105"
       clipPathUnits="userSpaceOnUse">
      <path
         inkscape:connector-curvature="0"
         id="path2103"
         d="M 0.029999,841.95 H 595.29 V 0.03 H 0.029999 Z" />
    </clipPath>
    <clipPath
       id="clipPath2117"
       clipPathUnits="userSpaceOnUse">
      <path
         inkscape:connector-curvature="0"
         id="path2115"
         d="M 0,841.89 H 595.275 V 0 H 0 Z" />
    </clipPath>
    <clipPath
       id="clipPath2123"
       clipPathUnits="userSpaceOnUse">
      <path
         inkscape:connector-curvature="0"
         id="path2121"
         d="M 0.029999,841.95 H 595.29 V 0.03 H 0.029999 Z" />
    </clipPath>
    <clipPath
       id="clipPath2141"
       clipPathUnits="userSpaceOnUse">
      <path
         style="clip-rule:evenodd"
         inkscape:connector-curvature="0"
         id="path2139"
         d="m 324.128,443.88 c 0,-32.859 -26.669,-59.527 -59.528,-59.527 -32.859,0 -59.528,26.668 -59.528,59.527 0,32.859 26.669,59.527 59.528,59.527 32.859,0 59.528,-26.668 59.528,-59.527" />
    </clipPath>
    <clipPath
       id="clipPath2147"
       clipPathUnits="userSpaceOnUse">
      <path
         inkscape:connector-curvature="0"
         id="path2145"
         d="M 0,841.89 H 595.275 V 0 H 0 Z" />
    </clipPath>
    <clipPath
       id="clipPath2153"
       clipPathUnits="userSpaceOnUse">
      <path
         inkscape:connector-curvature="0"
         id="path2151"
         d="M 0.029999,841.95 H 595.29 V 0.03 H 0.029999 Z" />
    </clipPath>
    <clipPath
       id="clipPath2165"
       clipPathUnits="userSpaceOnUse">
      <path
         inkscape:connector-curvature="0"
         id="path2163"
         d="M 0,841.89 H 595.275 V 0 H 0 Z" />
    </clipPath>
    <clipPath
       id="clipPath2171"
       clipPathUnits="userSpaceOnUse">
      <path
         inkscape:connector-curvature="0"
         id="path2169"
         d="M 0.029999,841.95 H 595.29 V 0.03 H 0.029999 Z" />
    </clipPath>
    <clipPath
       id="clipPath1745-3"
       clipPathUnits="userSpaceOnUse">
      <path
         inkscape:connector-curvature="0"
         id="path1743-6"
         d="M 558.06,85.04 H 363.037 V 53.542 H 558.06 Z" />
    </clipPath>
  </defs>
  <sodipodi:namedview
     id="base"
     pagecolor="#ffffff"
     bordercolor="#666666"
     borderopacity="1.0"
     inkscape:pageopacity="0.0"
     inkscape:pageshadow="2"
     inkscape:zoom="0.7"
     inkscape:cx="590.87293"
     inkscape:cy="193.87625"
     inkscape:document-units="px"
     inkscape:current-layer="layer1"
     showgrid="false"
     units="px"
     inkscape:window-width="1360"
     inkscape:window-height="706"
     inkscape:window-x="-8"
     inkscape:window-y="-8"
     inkscape:window-maximized="1" />
  <metadata
     id="metadata973">
    <rdf:RDF>
      <cc:Work
         rdf:about="">
        <dc:format>image/svg+xml</dc:format>
        <dc:type
           rdf:resource="http://purl.org/dc/dcmitype/StillImage" />
        <dc:title></dc:title>
      </cc:Work>
    </rdf:RDF>
  </metadata>
  <g
     inkscape:label="Layer 1"
     inkscape:groupmode="layer"
     id="layer1"
     transform="translate(0,-254.26846)">
    <g
       id="g1727"
       transform="matrix(1.3566777,0,0,-1.3566777,132.17972,281.51324)">
      <path
         d="m 0,0 v 3.073 h 9.803 c 0,0.073 0.02,0.128 0.02,0.201 0,0.165 0,0.347 0,0.53 0,5.322 -3.604,8.926 -8.213,8.926 v -1.463 c 0.878,0 1.61,-0.732 1.61,-1.61 V 4.536 H 0 v 5.121 c 0,0.878 0.732,1.61 1.61,1.61 v 1.463 c -4.609,0 -8.231,-3.604 -8.231,-8.926 0,-5.341 3.622,-9.51 8.231,-9.51 3.75,0 7.572,2.67 8.139,6.767 H 7.92 c 0,0 -0.64,-4.902 -5.432,-4.865 C 1.043,-3.804 -0.054,-2.67 0,0"
         style="fill:#f9a01b;fill-opacity:1;fill-rule:nonzero;stroke:none"
         id="path1729"
         inkscape:connector-curvature="0" />
    </g>
    <g
       id="g1731"
       transform="matrix(1.3566777,0,0,-1.3566777,93.446596,264.78948)">
      <path
         d="m 0,0 h -7.901 v -1.609 h 1.61 v -14.047 h -1.61 v -1.756 h 9.51 v 1.756 H 0 V 0"
         style="fill:#f9a01b;fill-opacity:1;fill-rule:nonzero;stroke:none"
         id="path1733"
         inkscape:connector-curvature="0" />
    </g>
    <g
       id="g1735"
       transform="matrix(1.3566777,0,0,-1.3566777,83.770775,259.52833)">
      <path
         d="M 0,0 C 0,1.518 1.628,3.072 3.658,3.072 5.669,3.072 7.316,1.518 7.316,0 7.316,-1.518 5.669,-3.073 3.658,-3.073 1.628,-3.073 0,-1.518 0,0"
         style="fill:#f9a01b;fill-opacity:1;fill-rule:nonzero;stroke:none"
         id="path1737"
         inkscape:connector-curvature="0" />
    </g>
    <g
       id="g1739"
       transform="matrix(1.3566777,0,0,-1.3566777,-492.52419,369.64035)">
      <g
         id="g1741"
         clip-path="url(#clipPath1745-3)">
        <g
           id="g1747"
           transform="translate(392.008,77.285)">
          <path
             d="M 0,0 V 2.049 L -6.291,7.755 V 5.853 c -2.492,1.146 -4.136,1.496 -6.877,1.463 -8.595,-0.101 -15.721,-6.768 -15.803,-15.363 -0.082,-8.676 7.17,-15.071 15.803,-15.656 4.316,-0.293 9.158,1.032 13.022,4.828 v 2.195 c -2.817,-2.89 -5.071,-4.249 -8.926,-4.243 -6.583,0.01 -11.336,5.854 -11.412,12.437 -0.077,6.667 4.745,12.665 11.412,12.729 C -5.166,4.281 -2.475,3.022 0,0"
             style="fill:#f9a01b;fill-opacity:1;fill-rule:nonzero;stroke:none"
             id="path1749"
             inkscape:connector-curvature="0" />
        </g>
      </g>
    </g>
    <g
       id="g1751"
       transform="matrix(1.3566777,0,0,-1.3566777,64.887154,269.75085)">
      <path
         d="m 0,0 c 0,2.926 -2.469,4.243 -5.487,4.243 -1.865,0 -3.329,-0.622 -4.316,-1.756 v 1.171 h -7.902 v -1.61 h 1.61 v -14.046 h -1.61 v -1.756 h 9.511 v 1.756 H -9.803 V 0.146 c 0,0.97 0.786,1.756 1.755,1.756 0.97,0 1.757,-0.786 1.757,-1.756 v -13.9 h 7.9 v 1.756 H 0 V 0"
         style="fill:#f9a01b;fill-opacity:1;fill-rule:nonzero;stroke:none"
         id="path1753"
         inkscape:connector-curvature="0" />
    </g>
    <g
       id="g1755"
       transform="matrix(1.3566777,0,0,-1.3566777,68.335863,265.38514)">
      <path
         d="M 0,0 V -1.171 H 1.609 V -15.217 H 0 v -1.756 h 9.657 v 1.756 h -1.61 v 14.046 h 1.61 v 1.61 H 8.047 V 7.608 L 0,0"
         style="fill:#f9a01b;fill-opacity:1;fill-rule:nonzero;stroke:none"
         id="path1757"
         inkscape:connector-curvature="0" />
    </g>
    <g
       id="g1759"
       transform="matrix(1.3566777,0,0,-1.3566777,120.93966,269.75085)">
      <path
         d="m 0,0 c 0,2.926 -2.451,4.243 -5.487,4.243 -1.865,0 -3.328,-0.622 -4.316,-1.756 v 1.171 h -7.901 v -1.61 h 1.61 v -14.046 h -1.61 v -1.756 h 9.511 v 1.756 h -1.61 V 0.146 c 0,0.97 0.787,1.756 1.755,1.756 0.97,0 1.757,-0.786 1.757,-1.756 v -13.9 h 7.9 v 1.756 H 0 V 0"
         style="fill:#f9a01b;fill-opacity:1;fill-rule:nonzero;stroke:none"
         id="path1761"
         inkscape:connector-curvature="0" />
    </g>
    <g
       id="g1763"
       transform="matrix(1.3566777,0,0,-1.3566777,28.783251,289.40373)">
      <path
         d="m 0,0 c 4.609,0 8.23,4.335 8.23,9.658 0,5.322 -3.474,9.364 -8.084,9.364 v -1.756 c 0.879,0 1.61,-0.732 1.61,-1.61 V 3.365 c 0,-0.877 -0.731,-1.609 -1.61,-1.609 -0.878,0 -1.609,0.732 -1.609,1.609 v 12.291 c 0,0.878 0.731,1.61 1.609,1.61 v 1.756 c -4.609,0 -8.358,-4.042 -8.358,-9.364 C -8.212,4.335 -4.609,0 0,0"
         style="fill:#f9a01b;fill-opacity:1;fill-rule:nonzero;stroke:none"
         id="path1765"
         inkscape:connector-curvature="0" />
    </g>
    <g
       id="g1767"
       transform="matrix(1.3566777,0,0,-1.3566777,170.11921,269.75085)">
      <path
         d="m 0,0 c 0,2.926 -2.451,4.243 -5.487,4.243 -1.846,0 -3.31,-0.622 -4.316,-1.756 v 1.171 h -7.901 v -1.61 h 1.609 v -14.046 h -1.609 v -1.756 h 9.511 v 1.756 h -1.61 V 0.146 c 0,0.97 0.805,1.756 1.756,1.756 0.97,0 1.755,-0.786 1.755,-1.756 v -13.9 H 1.61 v 1.756 H 0 V 0"
         style="fill:#f9a01b;fill-opacity:1;fill-rule:nonzero;stroke:none"
         id="path1769"
         inkscape:connector-curvature="0" />
    </g>
    <g
       id="g1771"
       transform="matrix(1.3566777,0,0,-1.3566777,212.0555,256.05385)">
      <path
         d="m 0,0 v -1.756 h 1.463 v -20.338 h -1.61 v -1.756 h 9.364 v 1.756 H 7.608 V 0 H 0"
         style="fill:#f9a01b;fill-opacity:1;fill-rule:nonzero;stroke:none"
         id="path1773"
         inkscape:connector-curvature="0" />
    </g>
    <g
       id="g1775"
       transform="matrix(1.3566777,0,0,-1.3566777,173.56792,265.38514)">
      <path
         d="M 0,0 V -1.171 H 1.61 V -15.217 H 0 v -1.756 h 9.657 v 1.756 H 8.048 v 14.046 h 1.609 v 1.61 H 8.048 V 7.608 L 0,0"
         style="fill:#f9a01b;fill-opacity:1;fill-rule:nonzero;stroke:none"
         id="path1777"
         inkscape:connector-curvature="0" />
    </g>
    <g
       id="g1779"
       transform="matrix(1.3566777,0,0,-1.3566777,188.95399,269.65183)">
      <path
         d="M 0,0 C 1.134,0.786 1.829,1.353 3.164,1.921 4.115,2.305 4.773,2.396 5.816,2.414 6.584,2.414 7.169,2.396 7.754,1.957 8.358,1.518 8.285,1.262 8.285,0.073 v -1.866 c 0,0 -0.75,0.714 -1.628,1.135 V -2.414 C 7.516,-2.469 8.194,-3.219 8.194,-4.06 v -6.585 c 0,-0.878 -0.659,-1.572 -1.537,-1.572 -0.878,0 -1.536,0.694 -1.536,1.572 v 6.585 c 0,0.841 0.695,1.591 1.536,1.646 v 1.756 c -0.439,0.146 -1.097,0.311 -1.701,0.311 -3.658,-0.037 -6.2,-3.201 -6.163,-7.152 0,-3.566 2.085,-6.913 5.651,-6.932 0.896,0 1.701,0.183 2.286,0.384 1.116,0.384 1.573,0.769 1.573,0.769 v -0.549 h 7.573 v 1.755 H 14.339 V -1.445 C 14.119,1.884 13.314,2.158 11.851,3.219 11.12,3.749 9.583,4.097 8.925,4.152 8.266,4.261 7.608,4.316 6.949,4.316 4.371,4.316 1.975,3.603 0,2.231 V 0"
         style="fill:#f9a01b;fill-opacity:1;fill-rule:nonzero;stroke:none"
         id="path1781"
         inkscape:connector-curvature="0" />
    </g>
    <g
       id="g1783"
       transform="matrix(1.3566777,0,0,-1.3566777,247.58824,260.76014)">
      <path
         d="m 0,0 c -4.67,0 -8.456,-3.786 -8.456,-8.457 0,-4.67 3.786,-8.456 8.456,-8.456 4.671,0 8.457,3.786 8.457,8.456 C 8.457,-3.786 4.671,0 0,0 Z m 0,0.346 c 4.861,0 8.803,-3.941 8.803,-8.803 0,-4.861 -3.942,-8.802 -8.803,-8.802 -4.862,0 -8.802,3.941 -8.802,8.802 0,4.862 3.94,8.803 8.802,8.803"
         style="fill:#f9a01b;fill-opacity:1;fill-rule:nonzero;stroke:none"
         id="path1785"
         inkscape:connector-curvature="0" />
    </g>
    <g
       id="g1787"
       transform="matrix(1.3566777,0,0,-1.3566777,247.58824,255.70789)">
      <path
         d="m 0,0 c -6.727,0 -12.18,-5.454 -12.18,-12.181 0,-6.728 5.453,-12.181 12.18,-12.181 6.727,0 12.181,5.453 12.181,12.181 C 12.181,-5.454 6.727,0 0,0 Z m 0,0.346 c 6.919,0 12.527,-5.608 12.527,-12.527 0,-6.918 -5.608,-12.527 -12.527,-12.527 -6.919,0 -12.526,5.609 -12.526,12.527 0,6.919 5.607,12.527 12.526,12.527"
         style="fill:#f9a01b;fill-opacity:1;fill-rule:nonzero;stroke:none"
         id="path1789"
         inkscape:connector-curvature="0" />
    </g>
    <path
       d="m 261.24997,273.1548 h 0.97719 v -0.97858 h -0.97719 z"
       style="fill:#f9a01b;fill-opacity:1;fill-rule:nonzero;stroke:none;stroke-width:1.35667765"
       id="path1791"
       inkscape:connector-curvature="0" />
    <g
       id="g1793"
       transform="matrix(1.3566777,0,0,-1.3566777,248.44429,258.8934)">
      <path
         d="M 0,0 0.001,1.843 H 0.386 V -0.615 H -0.033 L -1.194,1.23 V -0.615 H -1.58 v 2.458 h 0.44 L 0,0"
         style="fill:#f9a01b;fill-opacity:1;fill-rule:nonzero;stroke:none"
         id="path1795"
         inkscape:connector-curvature="0" />
    </g>
    <g
       id="g1797"
       transform="matrix(1.3566777,0,0,-1.3566777,241.47776,258.18118)">
      <path
         d="M 0,0 -0.748,-0.302 -0.882,0.031 0.98,0.784 1.115,0.45 0.367,0.148 1.153,-1.797 0.786,-1.945 0,0"
         style="fill:#f9a01b;fill-opacity:1;fill-rule:nonzero;stroke:none"
         id="path1799"
         inkscape:connector-curvature="0" />
    </g>
    <g
       id="g1801"
       transform="matrix(1.3566777,0,0,-1.3566777,240.35036,261.09937)">
      <path
         d="m 0,0 -1.109,1.472 0.308,0.232 1.479,-1.962 -0.335,-0.253 -2.037,0.775 1.11,-1.473 -0.308,-0.232 -1.479,1.962 0.35,0.264 L 0,0"
         style="fill:#f9a01b;fill-opacity:1;fill-rule:nonzero;stroke:none"
         id="path1803"
         inkscape:connector-curvature="0" />
    </g>
    <g
       id="g1805"
       transform="matrix(1.3566777,0,0,-1.3566777,255.21957,261.27439)">
      <path
         d="M 0,0 0.976,1.562 1.304,1.358 0.002,-0.726 -0.354,-0.504 -0.361,1.675 -1.339,0.111 -1.666,0.315 -0.364,2.399 0.009,2.166 0,0"
         style="fill:#f9a01b;fill-opacity:1;fill-rule:nonzero;stroke:none"
         id="path1807"
         inkscape:connector-curvature="0" />
    </g>
    <g
       id="g1809"
       transform="matrix(1.3566777,0,0,-1.3566777,250.58242,259.50656)">
      <path
         d="M 0,0 1.382,-0.396 1.282,-0.742 -0.48,-0.236 0.197,2.126 1.937,1.627 1.838,1.281 0.479,1.671 0.298,1.04 1.553,0.681 1.453,0.335 0.199,0.695 0,0"
         style="fill:#f9a01b;fill-opacity:1;fill-rule:nonzero;stroke:none"
         id="path1811"
         inkscape:connector-curvature="0" />
    </g>
    <g
       id="g1813"
       transform="matrix(1.3566777,0,0,-1.3566777,260.28132,263.96327)">
      <path
         d="m 0,0 -0.943,-0.218 0.347,-0.533 z m -1.274,-1.64 0.453,0.575 -0.492,0.758 -0.717,-0.169 -0.224,0.345 2.564,0.563 0.227,-0.35 -1.577,-2.084 -0.234,0.362"
         style="fill:#f9a01b;fill-opacity:1;fill-rule:nonzero;stroke:none"
         id="path1815"
         inkscape:connector-curvature="0" />
    </g>
    <g
       id="g1817"
       transform="matrix(1.3566777,0,0,-1.3566777,243.95236,256.79196)">
      <path
         d="M 0,0 0.388,0.082 0.898,-2.321 0.511,-2.403 0,0"
         style="fill:#f9a01b;fill-opacity:1;fill-rule:nonzero;stroke:none"
         id="path1819"
         inkscape:connector-curvature="0" />
    </g>
    <g
       id="g1821"
       transform="matrix(1.3566777,0,0,-1.3566777,258.2436,261.16317)">
      <path
         d="m 0,0 -0.57,0.57 0.254,0.254 1.42,-1.42 L 0.85,-0.851 0.28,-0.28 -1.203,-1.763 -1.483,-1.484 0,0"
         style="fill:#f9a01b;fill-opacity:1;fill-rule:nonzero;stroke:none"
         id="path1823"
         inkscape:connector-curvature="0" />
    </g>
    <g
       id="g1825"
       transform="matrix(1.3566777,0,0,-1.3566777,262.36788,266.27096)">
      <path
         d="M 0,0 0.116,-0.379 -1.89,-0.992 -1.537,-2.147 -1.881,-2.252 -2.349,-0.718 0,0"
         style="fill:#f9a01b;fill-opacity:1;fill-rule:nonzero;stroke:none"
         id="path1827"
         inkscape:connector-curvature="0" />
    </g>
    <g
       id="g1829"
       transform="matrix(1.3566777,0,0,-1.3566777,232.75433,266.26426)">
      <path
         d="M 0,0 C 0.206,0.512 0.641,0.773 1.174,0.627 L 1.031,0.271 C 0.676,0.333 0.455,0.169 0.334,-0.134 0.181,-0.512 0.332,-0.935 0.898,-1.164 1.411,-1.371 1.857,-1.342 2.065,-0.824 2.209,-0.468 2.011,-0.177 1.703,0.024 L 1.847,0.381 C 2.409,0.052 2.603,-0.453 2.38,-1.004 2.17,-1.525 1.623,-1.895 0.755,-1.544 0.061,-1.263 -0.269,-0.666 0,0"
         style="fill:#f9a01b;fill-opacity:1;fill-rule:nonzero;stroke:none"
         id="path1831"
         inkscape:connector-curvature="0" />
    </g>
    <g
       id="g1833"
       transform="matrix(1.3566777,0,0,-1.3566777,260.25013,281.95015)">
      <path
         d="m 0,0 c -0.554,-0.735 -1.335,-0.495 -1.753,-0.18 -0.418,0.315 -0.864,1 -0.31,1.735 0.554,0.735 1.336,0.494 1.753,0.18 C 0.107,1.42 0.554,0.735 0,0 Z m -1.776,1.338 c -0.296,-0.392 -0.17,-0.864 0.267,-1.194 0.438,-0.329 0.926,-0.319 1.221,0.072 0.296,0.393 0.17,0.865 -0.266,1.195 -0.437,0.329 -0.927,0.32 -1.222,-0.073"
         style="fill:#f9a01b;fill-opacity:1;fill-rule:nonzero;stroke:none"
         id="path1835"
         inkscape:connector-curvature="0" />
    </g>
    <g
       id="g1837"
       transform="matrix(1.3566777,0,0,-1.3566777,246.77018,285.58733)">
      <path
         d="m 0,0 v -1.843 h -0.387 v 2.457 h 0.42 L 1.194,-1.23 V 0.614 H 1.58 V -1.843 H 1.141 L 0,0"
         style="fill:#f9a01b;fill-opacity:1;fill-rule:nonzero;stroke:none"
         id="path1839"
         inkscape:connector-curvature="0" />
    </g>
    <g
       id="g1841"
       transform="matrix(1.3566777,0,0,-1.3566777,253.74078,286.29552)">
      <path
         d="M 0,0 0.748,0.302 0.882,-0.031 -0.98,-0.784 -1.115,-0.45 -0.368,-0.148 -1.153,1.797 -0.786,1.945 0,0"
         style="fill:#f9a01b;fill-opacity:1;fill-rule:nonzero;stroke:none"
         id="path1843"
         inkscape:connector-curvature="0" />
    </g>
    <g
       id="g1845"
       transform="matrix(1.3566777,0,0,-1.3566777,254.86276,283.38544)">
      <path
         d="M 0,0 1.109,-1.472 0.801,-1.705 -0.678,0.258 -0.343,0.511 1.694,-0.264 0.583,1.209 0.892,1.441 2.371,-0.521 2.019,-0.785 0,0"
         style="fill:#f9a01b;fill-opacity:1;fill-rule:nonzero;stroke:none"
         id="path1847"
         inkscape:connector-curvature="0" />
    </g>
    <g
       id="g1849"
       transform="matrix(1.3566777,0,0,-1.3566777,239.97048,283.21592)">
      <path
         d="M 0,0 -0.976,-1.563 -1.304,-1.359 -0.001,0.725 0.354,0.503 0.361,-1.676 1.338,-0.112 1.666,-0.317 0.363,-2.401 -0.009,-2.168 0,0"
         style="fill:#f9a01b;fill-opacity:1;fill-rule:nonzero;stroke:none"
         id="path1851"
         inkscape:connector-curvature="0" />
    </g>
    <g
       id="g1853"
       transform="matrix(1.3566777,0,0,-1.3566777,244.60355,284.9864)">
      <path
         d="m 0,0 -1.382,0.396 0.099,0.346 1.763,-0.505 -0.678,-2.363 -1.74,0.499 0.1,0.346 1.359,-0.39 0.18,0.63 -1.254,0.36 0.099,0.346 1.255,-0.36 L 0,0"
         style="fill:#f9a01b;fill-opacity:1;fill-rule:nonzero;stroke:none"
         id="path1855"
         inkscape:connector-curvature="0" />
    </g>
    <g
       id="g1857"
       transform="matrix(1.3566777,0,0,-1.3566777,234.9155,280.52158)">
      <path
         d="M 0,0 0.943,0.217 0.596,0.751 Z M 1.274,1.64 0.821,1.065 1.313,0.307 2.03,0.476 2.254,0.131 -0.31,-0.432 -0.537,-0.083 1.04,2.002 1.274,1.64"
         style="fill:#f9a01b;fill-opacity:1;fill-rule:nonzero;stroke:none"
         id="path1859"
         inkscape:connector-curvature="0" />
    </g>
    <g
       id="g1861"
       transform="matrix(1.3566777,0,0,-1.3566777,251.25942,287.69155)">
      <path
         d="M 0,0 -0.387,-0.083 -0.898,2.321 -0.51,2.403 0,0"
         style="fill:#f9a01b;fill-opacity:1;fill-rule:nonzero;stroke:none"
         id="path1863"
         inkscape:connector-curvature="0" />
    </g>
    <g
       id="g1865"
       transform="matrix(1.3566777,0,0,-1.3566777,236.94918,283.32714)">
      <path
         d="M 0,0 0.571,-0.57 0.316,-0.824 -1.104,0.596 -0.85,0.85 -0.279,0.28 1.203,1.763 1.484,1.483 0,0"
         style="fill:#f9a01b;fill-opacity:1;fill-rule:nonzero;stroke:none"
         id="path1867"
         inkscape:connector-curvature="0" />
    </g>
    <g
       id="g1869"
       transform="matrix(1.3566777,0,0,-1.3566777,232.82625,278.22882)">
      <path
         d="M 0,0 -0.116,0.379 1.891,0.992 1.538,2.147 1.882,2.252 2.35,0.718 0,0"
         style="fill:#f9a01b;fill-opacity:1;fill-rule:nonzero;stroke:none"
         id="path1871"
         inkscape:connector-curvature="0" />
    </g>
    <g
       id="g1873"
       transform="matrix(1.3566777,0,0,-1.3566777,262.45064,278.23147)">
      <path
         d="m 0,0 c -0.207,-0.512 -0.641,-0.773 -1.174,-0.626 l 0.143,0.355 c 0.355,-0.062 0.575,0.102 0.697,0.405 0.153,0.378 0.002,0.801 -0.564,1.03 -0.514,0.207 -0.959,0.178 -1.168,-0.34 -0.143,-0.356 0.055,-0.647 0.363,-0.847 l -0.144,-0.358 c -0.562,0.329 -0.756,0.834 -0.533,1.385 0.209,0.522 0.756,0.891 1.625,0.54 C -0.061,1.263 0.269,0.666 0,0"
         style="fill:#f9a01b;fill-opacity:1;fill-rule:nonzero;stroke:none"
         id="path1875"
         inkscape:connector-curvature="0" />
    </g>
    <path
       d="m 232.74891,273.1548 h 0.97815 v -0.97858 h -0.97815 z"
       style="fill:#f9a01b;fill-opacity:1;fill-rule:nonzero;stroke:none;stroke-width:1.35667765"
       id="path1877"
       inkscape:connector-curvature="0" />
    <g
       id="g1879"
       transform="matrix(1.3566777,0,0,-1.3566777,254.18711,280.6911)">
      <path
         d="M 0,0 -0.362,-0.416 H -9.384 L -9.746,0 h 5.315 c 0.076,0.205 0.224,0.595 0.238,0.602 0.156,0.127 0.362,0.323 0.509,0.519 0.029,0.034 0.602,0.23 0.807,0.377 0.201,0.146 0.499,0.342 0.421,0.655 -0.083,0.308 -0.597,0.739 -0.606,0.788 -0.011,0.044 -0.402,0.445 -0.465,0.655 -0.064,0.206 -0.025,0.397 -0.025,0.397 l 0.19,0.611 c 0,0 -1.726,-0.2 -1.903,-0.176 -0.176,0.03 -0.528,0.093 -0.528,0.093 L -7.134,5.02 -7.246,4.844 -7.51,4.751 -9.492,5.769 -9.835,5.759 c 0,0 -0.636,-0.773 -0.655,-0.925 -0.019,-0.137 0.074,-0.386 0.074,-0.386 l -0.045,-0.113 c 0,0 -0.352,0.123 -0.382,-0.039 -0.038,-0.235 0.343,-0.284 0.343,-0.284 l 0.039,-0.186 -0.822,-0.719 c 0,0 -0.161,0.988 -0.161,1.018 0.186,0.562 0.112,0.377 0.234,0.988 0,0 0.656,0.759 0.896,1.258 l 0.729,0.23 0.113,-0.127 0.803,-0.26 -0.906,0.895 -0.553,0.132 -0.822,-0.435 -0.132,-0.186 -0.162,-0.103 c 0,0 -0.327,0.338 -0.464,0.074 -0.098,-0.191 0.239,-0.313 0.284,-0.333 l -0.064,-0.259 -0.915,-0.284 0.21,1.135 c 0.01,-0.01 0.402,0.215 0.641,0.602 0.627,0.166 1.365,0.372 1.674,0.558 L -9.37,7.843 -9.183,7.628 -8.508,7.315 c 0,0 0.264,0.812 0.44,1.071 0.176,0.26 0.382,0.407 0.621,0.685 0.147,0.186 0.436,0.377 0.685,0.636 0.26,0.26 0.275,0.495 0.275,0.495 l 0.067,0.572 -0.391,0.073 -0.083,0.084 -0.626,-0.103 c -0.338,-0.156 -0.511,-0.45 -0.788,-0.01 l 0.02,0.147 0.127,0.049 0.641,0.137 0.019,0.205 -0.185,0.118 -0.656,-0.211 -0.196,0.118 -0.01,0.151 0.084,0.137 0.073,0.103 v 0.167 l 0.132,0.073 h 0.2 l 1.287,0.426 0.103,0.092 1.062,0.27 v 0.841 l 0.778,-1.037 c 0.23,0.054 0.323,0.01 0.367,-0.083 0.132,-0.25 -0.157,-0.268 -0.093,-0.426 0.073,-0.183 0.353,0.064 0.446,-0.239 0.072,-0.28 -0.247,-0.243 -0.187,-0.407 0.057,-0.154 0.323,0.054 0.392,-0.156 0.092,-0.328 -0.255,-0.236 -0.24,-0.426 0.013,-0.174 0.26,-0.093 0.249,-0.372 -0.009,-0.269 -0.278,-0.13 -0.307,-0.293 C -4.233,10.035 -3.964,10.124 -3.997,9.82 -4.037,9.507 -4.281,9.67 -4.306,9.497 -4.327,9.347 -4.046,9.311 -4.193,9.125 -4.389,8.866 -4.489,9.072 -4.526,8.925 -4.568,8.754 -4.277,8.802 -4.33,8.518 -4.35,8.352 -4.692,8.377 -4.692,8.377 c 0,0 0.049,-0.363 0.23,-0.563 l 0.558,-0.176 0.866,-0.054 c 0,0 1.091,0.181 1.805,0.01 C -0.704,7.462 -0.18,6.796 -0.142,6.777 0.034,6.694 0.387,6.674 0.588,6.84 0.802,7.016 1.262,7.305 1.659,7.335 1.928,7.344 2.3,7.232 2.53,6.65 2.745,6.121 1.938,4.178 2.041,3.293 2.07,3.014 2.383,2.868 2.383,2.868 1.698,2.461 0.7,3.19 0.7,3.939 0.7,4.678 0.813,4.404 1.042,5.25 1.262,6.092 1.013,6.077 0.896,6.224 0.783,6.371 0.568,6.287 0.568,6.287 L 0.054,6.092 C 0.367,5.177 0.064,4.927 -0.097,4.687 -0.465,4.115 -0.298,3.826 -0.274,3.67 -0.215,3.42 -0.049,3.078 0.098,2.941 0.235,2.804 0.514,2.608 0.514,2.608 L 0.48,2.358 C 0.157,2.109 -0.244,1.659 -0.524,1.096 -0.6,0.941 -0.699,0.69 -0.699,0.69 L -0.733,0.474 c 0,0 -0.538,0.094 -0.632,-0.102 0,0 -0.122,-0.245 0.23,-0.279 L -1.157,0 Z m -3.366,0 h 1.117 l 0.195,0.46 0.386,0.416 c 0.112,0.093 0.758,0.665 0.905,0.89 0.142,0.211 0.239,0.27 0.206,0.543 C -0.596,2.588 -1.223,2.902 -1.399,3.058 -1.576,3.22 -1.889,3.587 -1.865,3.993 -1.991,3.851 -2.065,3.949 -2.103,3.552 -2.138,3.141 -1.668,2.554 -1.472,2.295 -1.423,2.227 -1.375,2.182 -1.36,2.163 L -1.379,2.006 -1.531,1.893 c 0,0 -1.013,-0.729 -1.213,-0.914 C -2.892,0.842 -2.838,0.675 -2.838,0.675 L -2.941,0.499 c 0,0 -0.538,0.093 -0.63,-0.103 0,0 -0.123,-0.244 0.229,-0.278 L -3.366,0"
         style="fill:#f9a01b;fill-opacity:1;fill-rule:nonzero;stroke:none"
         id="path1881"
         inkscape:connector-curvature="0" />
    </g>
    <g
       id="g1883"
       transform="matrix(1.3566777,0,0,-1.3566777,234.95349,262.51432)">
      <path
         d="m 0,0 c 0.553,0.735 1.335,0.495 1.753,0.18 0.417,-0.315 0.863,-1 0.31,-1.735 C 1.509,-2.29 0.727,-2.05 0.31,-1.735 -0.108,-1.42 -0.555,-0.735 0,0 Z m 1.776,-1.338 c 0.295,0.392 0.17,0.864 -0.268,1.194 -0.437,0.329 -0.926,0.32 -1.221,-0.072 -0.296,-0.393 -0.17,-0.865 0.267,-1.195 0.437,-0.329 0.926,-0.32 1.222,0.073"
         style="fill:#f9a01b;fill-opacity:1;fill-rule:evenodd;stroke:none"
         id="path1885"
         inkscape:connector-curvature="0" />
    </g>
  </g>
</svg>
